<?xml version="1.0" encoding="UTF-8"?>
<svg version="1.1" xmlns="http://www.w3.org/2000/svg" width="256" height="256">
<path d="M0 0 C35.97 0 71.94 0 109 0 C109.40108809 27.13138125 109.40108809 27.13138125 109.48828125 38.7109375 C109.54802594 46.60778116 109.61864122 54.50346363 109.75439453 62.39941406 C109.86317919 68.76672566 109.92286922 75.13279205 109.94877243 81.5009613 C109.96722734 83.9283763 110.00326787 86.3557243 110.05730057 88.78260803 C110.46447538 107.83128674 110.46447538 107.83128674 106.8140564 113.23712158 C104.27043374 115.30579707 101.98647876 116.68033947 99 118 C97.99710938 118.69609375 96.99421875 119.3921875 95.9609375 120.109375 C95.10757813 120.65078125 94.25421875 121.1921875 93.375 121.75 C89.73415819 124.10945463 86.24723252 126.54536848 82.8203125 129.20703125 C82.10439941 129.76100586 81.38848633 130.31498047 80.65087891 130.88574219 C79.23582 131.98887778 77.82893008 133.10258695 76.43115234 134.22753906 C75.78355957 134.73124023 75.1359668 135.23494141 74.46875 135.75390625 C73.89576172 136.21095947 73.32277344 136.6680127 72.73242188 137.13891602 C71 138 71 138 67 137 C66.67 108.62 66.34 80.24 66 51 C61.38 54.3 56.76 57.6 52 61 C49.64583333 62.66666667 47.29166667 64.33333333 44.9375 66 C39.92439971 69.56560628 35.02924418 73.25785234 30.17553711 77.0390625 C25.52971455 80.63816473 20.77560164 84.07567315 16 87.5 C9.57045802 92.1126145 3.24565412 96.82672052 -3.00390625 101.6796875 C-7.40827135 105.09062996 -11.8721158 108.42025484 -16.33544922 111.75341797 C-18.16579331 113.1241626 -19.99134672 114.50113403 -21.81640625 115.87890625 C-29.50509772 121.67689004 -37.24941978 127.37757793 -45.109375 132.94140625 C-46.85430871 134.18408202 -48.58016305 135.45512791 -50.265625 136.77734375 C-52 138 -52 138 -54 138 C-54 138.66 -54 139.32 -54 140 C-56.2146374 141.80605457 -58.42278181 143.47655378 -60.75 145.125 C-61.38421875 145.59292969 -62.0184375 146.06085938 -62.671875 146.54296875 C-63.290625 146.98511719 -63.909375 147.42726562 -64.546875 147.8828125 C-65.39523926 148.49213623 -65.39523926 148.49213623 -66.26074219 149.11376953 C-68 150 -68 150 -72 150 C-72.10146163 142.82849213 -72.17149156 135.65716951 -72.21972656 128.48510742 C-72.23983564 126.04558393 -72.26712683 123.6061086 -72.30175781 121.16674805 C-72.35030489 117.65922152 -72.37297632 114.15233257 -72.390625 110.64453125 C-72.41127014 109.55477493 -72.43191528 108.46501862 -72.45318604 107.34223938 C-72.455425 99.77822934 -72.455425 99.77822934 -70.22680664 95.9699707 C-68.18546281 94.16407186 -66.1906247 92.43060367 -63.98046875 90.8359375 C-63.21307373 90.27680664 -62.44567871 89.71767578 -61.6550293 89.14160156 C-60.84074463 88.55862305 -60.02645996 87.97564453 -59.1875 87.375 C-58.3416333 86.76108398 -57.4957666 86.14716797 -56.62426758 85.51464844 C-54.90108089 84.26407665 -53.17607258 83.01601093 -51.44921875 81.77050781 C-48.62651589 79.73001328 -45.8211365 77.66693699 -43.01806641 75.59960938 C-37.65057284 71.64235351 -32.24765321 67.73870447 -26.8125 63.875 C-18.72853847 58.12080676 -10.81348437 52.15462807 -2.93359375 46.125 C-2.019729 45.42648926 -1.10586426 44.72797852 -0.16430664 44.00830078 C1.64663848 42.62326459 3.45613324 41.2363292 5.26391602 39.84716797 C10.35456559 35.95197332 15.51064144 32.18801577 20.78662109 28.54736328 C22.89316332 27.07468905 24.95315478 25.55424831 27 24 C25.90347577 20.71042732 25.50454994 20.38496488 22.75390625 18.58203125 C22.08552734 18.13593506 21.41714844 17.68983887 20.72851562 17.23022461 C20.01373047 16.76237549 19.29894531 16.29452637 18.5625 15.8125 C4.70870397 6.51628097 4.70870397 6.51628097 0 2 C0 1.34 0 0.68 0 0 Z " fill="#FF2C43" transform="translate(110,0)"/>
<path d="M0 0 C0.99 0.33 1.98 0.66 3 1 C3.15220391 8.02893307 3.25723781 15.05744096 3.32958984 22.08764648 C3.3597524 24.47875855 3.40068901 26.86976006 3.45263672 29.26049805 C3.52547053 32.69868234 3.55946273 36.13540348 3.5859375 39.57421875 C3.61690521 40.64210129 3.64787292 41.70998383 3.67977905 42.81022644 C3.68305869 50.0518548 3.68305869 50.0518548 1.76879883 52.70901489 C0.22021484 54.02075195 0.22021484 54.02075195 -3 56 C-3.70608398 56.54333984 -4.41216797 57.08667969 -5.13964844 57.64648438 C-5.7896582 58.12408203 -6.43966797 58.60167969 -7.109375 59.09375 C-7.85493652 59.64256836 -8.60049805 60.19138672 -9.36865234 60.75683594 C-10.15449707 61.33208008 -10.9403418 61.90732422 -11.75 62.5 C-12.57838379 63.10875977 -13.40676758 63.71751953 -14.26025391 64.34472656 C-20.68637835 69.05924819 -27.15326381 73.71595633 -33.62524414 78.3671875 C-39.20847011 82.39390404 -44.68254077 86.5416383 -50.10546875 90.78125 C-53 93 -53 93 -54.89453125 93.88085938 C-57.17207315 95.05420839 -58.45476825 95.93716568 -60 98 C-60.90508704 102.83231691 -60.74955744 107.59914397 -60.625 112.5 C-60.5738907 115.1142407 -60.54437161 117.72901514 -60.5390625 120.34375 C-60.51021973 121.50068359 -60.48137695 122.65761719 -60.45166016 123.84960938 C-61.16773023 127.96366468 -62.86028879 129.35024559 -66 132 C-66.75539062 132.64582031 -67.51078125 133.29164063 -68.2890625 133.95703125 C-85.96842105 148 -85.96842105 148 -89 148 C-89 148.66 -89 149.32 -89 150 C-92.75566015 153.28726716 -96.8576699 156.40542726 -102 156.4375 C-105 156 -105 156 -106 155 C-106.10494947 152.75681445 -106.13857383 150.51027776 -106.14526367 148.26464844 C-106.14862228 147.56052322 -106.1519809 146.85639801 -106.15544128 146.13093567 C-106.16498197 143.79039775 -106.16689626 141.44993119 -106.16796875 139.109375 C-106.17118029 137.48610402 -106.17454428 135.86283334 -106.17805481 134.23956299 C-106.18405466 130.82978647 -106.18589395 127.42003533 -106.18530273 124.01025391 C-106.18520132 119.64440159 -106.19882832 115.27871267 -106.21607494 110.91289902 C-106.22720649 107.55683651 -106.22922155 104.20081327 -106.22869301 100.84473419 C-106.22987235 99.23561289 -106.23429159 97.62649054 -106.24202538 96.01738739 C-106.25184412 93.76245295 -106.2489394 91.50787002 -106.24291992 89.25292969 C-106.24434494 87.97021179 -106.24576996 86.6874939 -106.24723816 85.36590576 C-105.94767028 81.28758206 -105.26779666 78.29654963 -102.37451172 75.33764648 C-101.41182373 74.61170288 -101.41182373 74.61170288 -100.4296875 73.87109375 C-99.70620117 73.31711914 -98.98271484 72.76314453 -98.23730469 72.19238281 C-97.45774414 71.61327148 -96.67818359 71.03416016 -95.875 70.4375 C-95.0696582 69.82616211 -94.26431641 69.21482422 -93.43457031 68.58496094 C-90.96380236 66.71322578 -88.48225735 64.85645723 -86 63 C-84.57988081 61.92429615 -83.16056128 60.84753548 -81.7421875 59.76953125 C-72.7180026 52.93034461 -63.53399642 46.32976433 -54.29101562 39.79101562 C-46.89048072 34.55072808 -39.57471678 29.21564394 -32.33276367 23.75805664 C-26.89184329 19.65984564 -21.42145936 15.60291981 -15.9375 11.5625 C-14.75957886 10.69383301 -14.75957886 10.69383301 -13.55786133 9.80761719 C-12.07111373 8.71320797 -10.58172898 7.62236954 -9.08935547 6.53564453 C-7.71099013 5.52256695 -6.34493798 4.49249026 -4.99267578 3.44482422 C-3.38331814 2.22083542 -1.69686551 1.09946716 0 0 Z " fill="#FF2C43" transform="translate(144,100)"/>
<path d="M0 0 C35.31 0 70.62 0 107 0 C107.40108809 27.13138125 107.40108809 27.13138125 107.48828125 38.7109375 C107.54802594 46.60778116 107.61864122 54.50346363 107.75439453 62.39941406 C107.86317919 68.76672566 107.92286922 75.13279205 107.94877243 81.5009613 C107.96722734 83.9283763 108.00326787 86.3557243 108.05730057 88.78260803 C108.46447538 107.83128674 108.46447538 107.83128674 104.8140564 113.23712158 C102.27043374 115.30579707 99.98647876 116.68033947 97 118 C95.99710938 118.69609375 94.99421875 119.3921875 93.9609375 120.109375 C93.10757813 120.65078125 92.25421875 121.1921875 91.375 121.75 C87.73415819 124.10945463 84.24723252 126.54536848 80.8203125 129.20703125 C80.10439941 129.76100586 79.38848633 130.31498047 78.65087891 130.88574219 C77.23582 131.98887778 75.82893008 133.10258695 74.43115234 134.22753906 C73.78355957 134.73124023 73.1359668 135.23494141 72.46875 135.75390625 C71.89576172 136.21095947 71.32277344 136.6680127 70.73242188 137.13891602 C69 138 69 138 65 137 C64.67 108.62 64.34 80.24 64 51 C59.38 54.3 54.76 57.6 50 61 C47.64583333 62.66666667 45.29166667 64.33333333 42.9375 66 C37.92439971 69.56560628 33.02924418 73.25785234 28.17553711 77.0390625 C23.52971455 80.63816473 18.77560164 84.07567315 14 87.5 C7.57045802 92.1126145 1.24565412 96.82672052 -5.00390625 101.6796875 C-9.40827135 105.09062996 -13.8721158 108.42025484 -18.33544922 111.75341797 C-20.16579331 113.1241626 -21.99134672 114.50113403 -23.81640625 115.87890625 C-31.50509772 121.67689004 -39.24941978 127.37757793 -47.109375 132.94140625 C-48.85430871 134.18408202 -50.58016305 135.45512791 -52.265625 136.77734375 C-54 138 -54 138 -56 138 C-56 138.66 -56 139.32 -56 140 C-58.25814848 141.79826445 -60.51277739 143.4746801 -62.875 145.125 C-63.52597656 145.59292969 -64.17695312 146.06085938 -64.84765625 146.54296875 C-69.73587828 150 -69.73587828 150 -72 150 C-72 132.84 -72 115.68 -72 98 C-71.67 98 -71.34 98 -71 98 C-71 113.84 -71 129.68 -71 146 C-67.43863933 143.8631836 -64.28308161 141.7992389 -61 139.3125 C-59.95585938 138.52359375 -58.91171875 137.7346875 -57.8359375 136.921875 C-54.89888079 134.68850467 -51.96875031 132.4461499 -49.0390625 130.203125 C-40.08535239 123.3528054 -31.12302243 116.5502383 -21.90234375 110.0625 C-18.68618067 107.77698976 -15.55339378 105.40071424 -12.453125 102.9609375 C-11 102 -11 102 -9 102 C-9 101.34 -9 100.68 -9 100 C-8.34 100 -7.68 100 -7 100 C-7 99.34 -7 98.68 -7 98 C-6.01 97.46375 -5.02 96.9275 -4 96.375 C-0.30568972 94.28331312 2.97959198 91.80794664 6.30078125 89.171875 C8 88 8 88 10 88 C10 87.34 10 86.68 10 86 C11.32 85.67 12.64 85.34 14 85 C14 84.34 14 83.68 14 83 C15.40185547 81.79833984 15.40185547 81.79833984 17.3671875 80.4609375 C18.44081543 79.72000854 18.44081543 79.72000854 19.53613281 78.96411133 C20.30795898 78.43970459 21.07978516 77.91529785 21.875 77.375 C26.78313667 73.98308726 31.63814382 70.60464088 36.25 66.8125 C40.89224285 63.00570323 45.77962276 59.62814131 50.73828125 56.25390625 C54.83085099 53.42586704 58.79974693 50.44618669 62.7578125 47.43359375 C65 46 65 46 68 46 C68.33 74.71 68.66 103.42 69 133 C74.30331307 130.46257054 74.30331307 130.46257054 78 127 C79.69012081 125.72548267 81.40081939 124.47804886 83.125 123.25 C87.48417346 120.11900636 91.73979005 116.89647983 95.9296875 113.54296875 C98 112 98 112 100.58818054 111.03874207 C103.13768014 109.29321986 103.13768014 109.29321986 103.46909523 107.01987648 C103.65979906 104.28187849 103.6833439 101.58185049 103.65942383 98.8371582 C103.66990753 97.79308807 103.68039124 96.74901794 103.69119263 95.67330933 C103.72003928 92.21550122 103.71363951 88.75868859 103.70703125 85.30078125 C103.72014038 82.90608967 103.73544217 80.51140916 103.75285339 78.116745 C103.79280757 71.80872805 103.8029006 65.50099966 103.80688477 59.19287109 C103.81783319 51.62703213 103.86567554 44.06134834 103.90737152 36.49562836 C103.96659302 24.99695549 103.97879464 13.49908906 104 2 C69.68 2 35.36 2 0 2 C0 1.34 0 0.68 0 0 Z " fill="#FF0D15" transform="translate(112,0)"/>
<path d="M0 0 C0.99 0.33 1.98 0.66 3 1 C3.15220391 8.02893307 3.25723781 15.05744096 3.32958984 22.08764648 C3.3597524 24.47875855 3.40068901 26.86976006 3.45263672 29.26049805 C3.52547053 32.69868234 3.55946273 36.13540348 3.5859375 39.57421875 C3.61690521 40.64210129 3.64787292 41.70998383 3.67977905 42.81022644 C3.68305869 50.0518548 3.68305869 50.0518548 1.76879883 52.70901489 C0.22021484 54.02075195 0.22021484 54.02075195 -3 56 C-3.70608398 56.54333984 -4.41216797 57.08667969 -5.13964844 57.64648438 C-5.7896582 58.12408203 -6.43966797 58.60167969 -7.109375 59.09375 C-7.85493652 59.64256836 -8.60049805 60.19138672 -9.36865234 60.75683594 C-10.15449707 61.33208008 -10.9403418 61.90732422 -11.75 62.5 C-12.57838379 63.10875977 -13.40676758 63.71751953 -14.26025391 64.34472656 C-20.68637835 69.05924819 -27.15326381 73.71595633 -33.62524414 78.3671875 C-39.20847011 82.39390404 -44.68254077 86.5416383 -50.10546875 90.78125 C-53 93 -53 93 -54.89453125 93.88085938 C-57.17207315 95.05420839 -58.45476825 95.93716568 -60 98 C-60.90508704 102.83231691 -60.74955744 107.59914397 -60.625 112.5 C-60.5738907 115.1142407 -60.54437161 117.72901514 -60.5390625 120.34375 C-60.51021973 121.50068359 -60.48137695 122.65761719 -60.45166016 123.84960938 C-61.16773023 127.96366468 -62.86028879 129.35024559 -66 132 C-66.75539062 132.64582031 -67.51078125 133.29164063 -68.2890625 133.95703125 C-85.96842105 148 -85.96842105 148 -89 148 C-89 148.66 -89 149.32 -89 150 C-90.86328125 151.5078125 -90.86328125 151.5078125 -93.3125 153.125 C-94.11300781 153.66382813 -94.91351563 154.20265625 -95.73828125 154.7578125 C-98 156 -98 156 -101 156 C-101 155.34 -101 154.68 -101 154 C-99.3828125 152.58300781 -99.3828125 152.58300781 -97.125 150.953125 C-96.30386719 150.355 -95.48273438 149.756875 -94.63671875 149.140625 C-93.76660156 148.51671875 -92.89648438 147.8928125 -92 147.25 C-90.31228326 146.02634055 -88.62478124 144.80238488 -86.9375 143.578125 C-85.69806641 142.68577148 -85.69806641 142.68577148 -84.43359375 141.77539062 C-81.44230421 139.59314167 -78.51146304 137.3370805 -75.59375 135.05761719 C-74 134 -74 134 -72 134 C-71.67 133.01 -71.34 132.02 -71 131 C-66.66666667 128 -66.66666667 128 -64 128 C-64.03927612 126.56950317 -64.03927612 126.56950317 -64.0793457 125.11010742 C-64.1698574 121.57128366 -64.22725059 118.03256204 -64.2746582 114.49291992 C-64.29980078 112.96116939 -64.33392047 111.42953883 -64.37719727 109.89819336 C-64.43786942 107.69615116 -64.46620891 105.49569426 -64.48828125 103.29296875 C-64.51408768 102.60849167 -64.5398941 101.92401459 -64.56648254 101.21879578 C-64.56762695 99.27807617 -64.56762695 99.27807617 -64 96 C-61.6081543 94.15209961 -61.6081543 94.15209961 -59 93 C-57.47987429 91.81708527 -55.9805434 90.60709605 -54.5 89.375 C-50.07082811 85.7775355 -45.47228766 82.50247988 -40.7590332 79.29541016 C-37.47549301 77.05130943 -34.30063374 74.72440457 -31.1875 72.25 C-28.61748846 70.20979192 -26.06705691 68.36836348 -23.25 66.6875 C-18.18540102 63.63444537 -13.60689143 59.93859495 -8.953125 56.3046875 C-7.97859375 55.54414063 -7.0040625 54.78359375 -6 54 C-5.25234375 53.40445313 -4.5046875 52.80890625 -3.734375 52.1953125 C-2 51 -2 51 0 51 C0 35.49 0 19.98 0 4 C-8.31359353 9.11747739 -8.31359353 9.11747739 -12 13 C-13.37402572 13.91741993 -14.74977384 14.83239353 -16.13525391 15.73242188 C-20.28475708 18.55308442 -24.21094088 21.6930885 -28.1875 24.75 C-35.39259304 30.26281549 -42.62130459 35.7208513 -50 41 C-52.96053501 43.12194727 -55.91865832 45.24721438 -58.875 47.375 C-60.03926514 48.21272949 -60.03926514 48.21272949 -61.22705078 49.06738281 C-65.90299905 52.44538453 -70.51251951 55.89195432 -75.0625 59.4375 C-79.1848904 62.64151056 -83.35189504 65.64621425 -87.7265625 68.4921875 C-90.52952184 70.3511949 -93.26691691 72.28976817 -96 74.25 C-96.928125 74.91515625 -97.85625 75.5803125 -98.8125 76.265625 C-101.08395135 77.81538395 -101.08395135 77.81538395 -102 80 C-102.12197488 82.40973615 -102.18559594 84.79254882 -102.20532227 87.20361328 C-102.21522186 87.9451767 -102.22512146 88.68674011 -102.23532104 89.45077515 C-102.26696363 91.90725488 -102.29170431 94.36375397 -102.31640625 96.8203125 C-102.3369734 98.521398 -102.35796981 100.22247836 -102.37937927 101.92355347 C-102.43462464 106.40500736 -102.48402303 110.88650756 -102.53222656 115.36804199 C-102.5824236 119.93941377 -102.63811904 124.51071813 -102.69335938 129.08203125 C-102.80097109 138.05462994 -102.90240936 147.02728711 -103 156 C-103.99 155.67 -104.98 155.34 -106 155 C-106.04636473 145.56835215 -106.08189024 136.1367436 -106.10362434 126.7050066 C-106.11405624 122.32535078 -106.12820461 117.94577301 -106.15087891 113.56616211 C-106.17262844 109.33865785 -106.1845731 105.11122861 -106.18975449 100.88367271 C-106.19344645 99.27175402 -106.20065593 97.65983937 -106.21146011 96.04795265 C-106.22600315 93.78814484 -106.22797678 91.528646 -106.22705078 89.26879883 C-106.231492 87.98306473 -106.23593323 86.69733063 -106.24050903 85.37263489 C-105.94922158 81.28793909 -105.27170351 78.30054509 -102.37451172 75.33764648 C-101.41182373 74.61170288 -101.41182373 74.61170288 -100.4296875 73.87109375 C-99.70620117 73.31711914 -98.98271484 72.76314453 -98.23730469 72.19238281 C-97.45774414 71.61327148 -96.67818359 71.03416016 -95.875 70.4375 C-95.0696582 69.82616211 -94.26431641 69.21482422 -93.43457031 68.58496094 C-90.96380236 66.71322578 -88.48225735 64.85645723 -86 63 C-84.57988081 61.92429615 -83.16056128 60.84753548 -81.7421875 59.76953125 C-72.7180026 52.93034461 -63.53399642 46.32976433 -54.29101562 39.79101562 C-46.89048072 34.55072808 -39.57471678 29.21564394 -32.33276367 23.75805664 C-26.89184329 19.65984564 -21.42145936 15.60291981 -15.9375 11.5625 C-14.75957886 10.69383301 -14.75957886 10.69383301 -13.55786133 9.80761719 C-12.07111373 8.71320797 -10.58172898 7.62236954 -9.08935547 6.53564453 C-7.71099013 5.52256695 -6.34493798 4.49249026 -4.99267578 3.44482422 C-3.38331814 2.22083542 -1.69686551 1.09946716 0 0 Z " fill="#FF131C" transform="translate(144,100)"/>
<path d="M0 0 C0.33 0.99 0.66 1.98 1 3 C-17.1049686 16.40011632 -17.1049686 16.40011632 -25.375 22.25 C-30.38418065 25.79666721 -35.26420756 29.48097836 -40.10693359 33.25097656 C-44.00217536 36.26946443 -47.97541694 39.15679814 -52 42 C-57.73370656 46.05324678 -63.31598945 50.27058991 -68.86328125 54.57421875 C-73.31635222 58.01800091 -77.82514214 61.38517549 -82.33544922 64.75341797 C-84.16579331 66.1241626 -85.99134672 67.50113403 -87.81640625 68.87890625 C-95.50509772 74.67689004 -103.24941978 80.37757793 -111.109375 85.94140625 C-112.85430871 87.18408202 -114.58016305 88.45512791 -116.265625 89.77734375 C-118 91 -118 91 -120 91 C-120 91.66 -120 92.32 -120 93 C-122.25814848 94.79826445 -124.51277739 96.4746801 -126.875 98.125 C-127.52597656 98.59292969 -128.17695313 99.06085938 -128.84765625 99.54296875 C-133.73587828 103 -133.73587828 103 -136 103 C-136 85.84 -136 68.68 -136 51 C-135.67 51 -135.34 51 -135 51 C-135 66.84 -135 82.68 -135 99 C-131.43863933 96.8631836 -128.28308161 94.7992389 -125 92.3125 C-123.95585938 91.52359375 -122.91171875 90.7346875 -121.8359375 89.921875 C-118.89888079 87.68850467 -115.96875031 85.4461499 -113.0390625 83.203125 C-104.08535239 76.3528054 -95.12302243 69.5502383 -85.90234375 63.0625 C-82.68618067 60.77698976 -79.55339378 58.40071424 -76.453125 55.9609375 C-75 55 -75 55 -73 55 C-73 54.34 -73 53.68 -73 53 C-72.34 53 -71.68 53 -71 53 C-71 52.34 -71 51.68 -71 51 C-70.01 50.46375 -69.02 49.9275 -68 49.375 C-64.30568972 47.28331312 -61.02040802 44.80794664 -57.69921875 42.171875 C-56 41 -56 41 -54 41 C-54 40.34 -54 39.68 -54 39 C-52.68 38.67 -51.36 38.34 -50 38 C-50 37.34 -50 36.68 -50 36 C-48.59814453 34.79833984 -48.59814453 34.79833984 -46.6328125 33.4609375 C-45.91706055 32.96698486 -45.20130859 32.47303223 -44.46386719 31.96411133 C-43.69204102 31.43970459 -42.92021484 30.91529785 -42.125 30.375 C-37.21686333 26.98308726 -32.36185618 23.60464088 -27.75 19.8125 C-22.08686052 15.17026662 -16.04451853 11.1229359 -10 7 C-8.06033317 5.64893886 -6.12260625 4.29508515 -4.1875 2.9375 C-2.97126953 2.08478516 -2.97126953 2.08478516 -1.73046875 1.21484375 C-1.15941406 0.81394531 -0.58835938 0.41304687 0 0 Z " fill="#FF151F" transform="translate(176,47)"/>
<path d="M0 0 C0.99 0.33 1.98 0.66 3 1 C1.60201172 2.01707031 1.60201172 2.01707031 0.17578125 3.0546875 C-6.23559289 7.7315877 -12.61235537 12.43769125 -18.875 17.3125 C-23.04994288 20.55612394 -27.29465607 23.608977 -31.7265625 26.4921875 C-34.52952184 28.3511949 -37.26691691 30.28976817 -40 32.25 C-40.928125 32.91515625 -41.85625 33.5803125 -42.8125 34.265625 C-45.08395135 35.81538395 -45.08395135 35.81538395 -46 38 C-46.12197488 40.40973615 -46.18559594 42.79254882 -46.20532227 45.20361328 C-46.21522186 45.9451767 -46.22512146 46.68674011 -46.23532104 47.45077515 C-46.26696363 49.90725488 -46.29170431 52.36375397 -46.31640625 54.8203125 C-46.3369734 56.521398 -46.35796981 58.22247836 -46.37937927 59.92355347 C-46.43462464 64.40500736 -46.48402303 68.88650756 -46.53222656 73.36804199 C-46.5824236 77.93941377 -46.63811904 82.51071813 -46.69335938 87.08203125 C-46.80097109 96.05462994 -46.90240936 105.02728711 -47 114 C-47.99 113.67 -48.98 113.34 -50 113 C-50.04636473 103.56835215 -50.08189024 94.1367436 -50.10362434 84.7050066 C-50.11405624 80.32535078 -50.12820461 75.94577301 -50.15087891 71.56616211 C-50.17262844 67.33865785 -50.1845731 63.11122861 -50.18975449 58.88367271 C-50.19344645 57.27175402 -50.20065593 55.65983937 -50.21146011 54.04795265 C-50.22600315 51.78814484 -50.22797678 49.528646 -50.22705078 47.26879883 C-50.231492 45.98306473 -50.23593323 44.69733063 -50.24050903 43.37263489 C-49.94922158 39.28793909 -49.27170351 36.30054509 -46.37451172 33.33764648 C-45.41182373 32.61170288 -45.41182373 32.61170288 -44.4296875 31.87109375 C-43.70587891 31.31687744 -42.98207031 30.76266113 -42.23632812 30.19165039 C-41.45708984 29.61278076 -40.67785156 29.03391113 -39.875 28.4375 C-39.07255859 27.8283374 -38.27011719 27.2191748 -37.44335938 26.59155273 C-34.96969721 24.71757361 -32.48517211 22.85867479 -30 21 C-28.53302364 19.88911673 -27.06683636 18.77719043 -25.6015625 17.6640625 C-22.3282925 15.18318349 -19.0396495 12.72440103 -15.73632812 10.28369141 C-14.12750487 9.09426611 -12.52443408 7.89707065 -10.921875 6.69921875 C-10.04015625 6.05597656 -9.1584375 5.41273438 -8.25 4.75 C-7.51265625 4.20859375 -6.7753125 3.6671875 -6.015625 3.109375 C-4 2 -4 2 0 2 C0 1.34 0 0.68 0 0 Z " fill="#FF1D29" transform="translate(88,142)"/>
<path d="M0 0 C4.05080055 0.5869331 6.5111394 2.7086931 9.6875 5.1875 C14.09403274 8.60454795 18.57167818 11.74300691 23.35546875 14.61328125 C25.34980128 16.29496307 25.63712487 17.45987411 26 20 C25.37996094 20.36609375 24.75992188 20.7321875 24.12109375 21.109375 C18.36367984 24.62919137 13.0924131 28.42121372 7.875 32.6875 C1.12961894 38.20073642 -5.87002711 43.24872804 -13.02734375 48.2109375 C-16.47863698 50.61011618 -19.84502617 53.10833143 -23.19799805 55.64257812 C-25.42042299 57.31669853 -27.67645779 58.94102048 -29.9375 60.5625 C-35.70691256 64.74007184 -41.35278467 69.07292722 -46.98608398 73.43188477 C-50.90119018 76.44859152 -54.87190193 79.27696485 -59 82 C-60.55498164 83.17001046 -62.09783013 84.35641354 -63.625 85.5625 C-65.08191312 86.71013858 -66.54019425 87.85604313 -68 89 C-68.68835938 89.56589844 -69.37671875 90.13179688 -70.0859375 90.71484375 C-72 92 -72 92 -75 92 C-73.86035557 88.58106671 -73.11412296 88.07733353 -70.2734375 86.03125 C-69.49637451 85.46567383 -68.71931152 84.90009766 -67.91870117 84.31738281 C-67.07927979 83.71764648 -66.2398584 83.11791016 -65.375 82.5 C-64.08589722 81.56559082 -64.08589722 81.56559082 -62.77075195 80.61230469 C-61.01499942 79.33971364 -59.25726465 78.06985296 -57.49755859 76.80273438 C-54.65552395 74.75135766 -51.83201974 72.67597483 -49.01147461 70.59521484 C-43.6467597 66.63863886 -38.2454957 62.73717075 -32.8125 58.875 C-24.72853847 53.12080676 -16.81348437 47.15462807 -8.93359375 41.125 C-8.019729 40.42648926 -7.10586426 39.72797852 -6.16430664 39.00830078 C-4.35336152 37.62326459 -2.54386676 36.2363292 -0.73608398 34.84716797 C4.35456559 30.95197332 9.51064144 27.18801577 14.78662109 23.54736328 C16.89316332 22.07468905 18.95315478 20.55424831 21 19 C19.88368256 15.65104768 19.35697956 15.28060309 16.54296875 13.40625 C15.84236328 12.93316406 15.14175781 12.46007813 14.41992188 11.97265625 C13.68322266 11.48667969 12.94652344 11.00070313 12.1875 10.5 C1.73947856 3.49750385 1.73947856 3.49750385 0 2 C0 1.34 0 0.68 0 0 Z " fill="#FF151F" transform="translate(116,5)"/>
<path d="M0 0 C0.99 0 1.98 0 3 0 C3 29.7 3 59.4 3 90 C2.01 90 1.02 90 0 90 C0 60.3 0 30.6 0 0 Z " fill="#FF0B14" transform="translate(177,46)"/>
<path d="M0 0 C0.33 0 0.66 0 1 0 C1.26969956 6.76174083 1.49963807 13.52399421 1.7019043 20.28808594 C1.77541593 22.58917845 1.85804493 24.88999843 1.94995117 27.19042969 C2.08045207 30.49645248 2.17818193 33.80206765 2.26953125 37.109375 C2.31721146 38.13867126 2.36489166 39.16796753 2.41401672 40.22845459 C2.5657614 47.37510064 2.5657614 47.37510064 -0.23754883 50.47143555 C-1.14915771 50.97586182 -2.0607666 51.48028809 -3 52 C-4.10504883 52.83736694 -4.10504883 52.83736694 -5.23242188 53.69165039 C-7.65323624 55.48426871 -10.07555382 57.27479581 -12.5 59.0625 C-13.34175781 59.68705078 -14.18351563 60.31160156 -15.05078125 60.95507812 C-15.86933594 61.55900391 -16.68789062 62.16292969 -17.53125 62.78515625 C-18.26923828 63.33051025 -19.00722656 63.87586426 -19.76757812 64.43774414 C-22.11523901 66.08064462 -24.52735636 67.55354696 -27 69 C-27.66 68.34 -28.32 67.68 -29 67 C-26.58377542 64.16356245 -24.13412416 62.4516666 -20.875 60.75 C-16.2294245 58.27747882 -12.30758544 55.21594028 -8.26171875 51.8671875 C-2.36610879 47 -2.36610879 47 0 47 C0 31.49 0 15.98 0 0 Z " fill="#FF1925" transform="translate(144,104)"/>
<path d="M0 0 C0.33 0.99 0.66 1.98 1 3 C-0.36125 3.4021875 -0.36125 3.4021875 -1.75 3.8125 C-4.71471963 4.89576294 -6.6169754 5.98359457 -9 8 C-9.66 7.67 -10.32 7.34 -11 7 C-9.54634731 5.82750647 -8.08692581 4.66216184 -6.625 3.5 C-5.40683594 2.52546875 -5.40683594 2.52546875 -4.1640625 1.53125 C-2 0 -2 0 0 0 Z " fill="#FF1726" transform="translate(215,110)"/>
</svg>
